<svg id="visual" viewBox="0 0 960 540" width="960" height="540" xmlns="http://www.w3.org/2000/svg" xmlns:xlink="http://www.w3.org/1999/xlink" version="1.1"><rect x="0" y="0" width="960" height="540" fill="#FF0066"></rect><g transform="translate(590.9658878673783 308.61244963852835)"><path d="M93.2 -91.9C154.3 -105.7 260.4 -136.6 293.5 -118.2C326.5 -99.8 286.5 -32.2 289.9 51.6C293.3 135.4 340.1 235.3 318.8 296.6C297.4 357.9 207.9 380.4 137.3 345.3C66.7 310.2 15 217.5 -89.2 223.6C-193.5 229.6 -350.3 334.5 -435.6 326.9C-520.9 319.2 -534.6 199 -542 83.8C-549.3 -31.4 -550.3 -141.5 -519.7 -249.3C-489.1 -357.1 -427 -462.5 -335.2 -434.6C-243.3 -406.7 -121.6 -245.5 -52.8 -163.4C16 -81.2 32.1 -78 93.2 -91.9" fill="#BB004B"></path></g></svg>