<svg id="visual" viewBox="0 0 960 540" width="960" height="540" xmlns="http://www.w3.org/2000/svg" xmlns:xlink="http://www.w3.org/1999/xlink" version="1.1"><rect x="0" y="0" width="960" height="540" fill="#FF0066"></rect><g transform="translate(445.5992876479364 252.7211813723038)"><path d="M341.1 -473.7C438.9 -467.9 512.8 -367.9 484.5 -268.6C456.1 -169.3 325.6 -70.6 266.6 7.6C207.6 85.9 220.2 143.8 201.6 186.6C183.1 229.5 133.4 257.2 65.6 322.3C-2.2 387.3 -88 489.7 -175.8 506.1C-263.5 522.6 -353.2 453.2 -395 364.7C-436.8 276.2 -430.7 168.6 -369.7 98.8C-308.7 29 -192.7 -3 -166.3 -82.2C-139.8 -161.3 -202.9 -287.6 -190.1 -332.3C-177.3 -376.9 -88.7 -340 16.5 -365.6C121.6 -391.3 243.3 -479.6 341.1 -473.7" fill="#BB004B"></path></g></svg>