<svg id="visual" viewBox="0 0 960 540" width="960" height="540" xmlns="http://www.w3.org/2000/svg" xmlns:xlink="http://www.w3.org/1999/xlink" version="1.1"><g stroke-width="1" stroke-linejoin="bevel"><path d="M451.4 373L556.6 540L536.6 365Z" fill="#353535" stroke="#ff0066"></path><path d="M451.4 373L382.4 540L556.6 540Z" fill="#1b1b1b" stroke="#ff0066"></path><path d="M598.6 230L361.4 320L451.4 373Z" fill="#1e1e1f" stroke="#ff0066"></path><path d="M451.4 373L274.3 406L382.4 540Z" fill="#353535" stroke="#ff0066"></path><path d="M274.3 406L302.3 540L382.4 540Z" fill="#0f0f10" stroke="#ff0066"></path><path d="M556.6 540L710.7 352L536.6 365Z" fill="#1e1e1f" stroke="#ff0066"></path><path d="M536.6 365L598.6 230L451.4 373Z" fill="#222222" stroke="#ff0066"></path><path d="M361.4 320L274.3 406L451.4 373Z" fill="#353535" stroke="#ff0066"></path><path d="M710.7 352L598.6 230L536.6 365Z" fill="#0f0f10" stroke="#ff0066"></path><path d="M556.6 540L736.7 540L710.7 352Z" fill="#313131" stroke="#ff0066"></path><path d="M411.4 111L290.3 284L361.4 320Z" fill="#313131" stroke="#ff0066"></path><path d="M361.4 320L290.3 284L274.3 406Z" fill="#0f0f10" stroke="#ff0066"></path><path d="M710.7 352L670.7 221L598.6 230Z" fill="#353535" stroke="#ff0066"></path><path d="M736.7 540L828.9 398L710.7 352Z" fill="#131314" stroke="#ff0066"></path><path d="M710.7 352L854.9 227L670.7 221Z" fill="#313131" stroke="#ff0066"></path><path d="M854.9 227L681.7 150L670.7 221Z" fill="#2d2d2d" stroke="#ff0066"></path><path d="M670.7 221L681.7 150L598.6 230Z" fill="#2d2d2d" stroke="#ff0066"></path><path d="M598.6 230L411.4 111L361.4 320Z" fill="#313131" stroke="#ff0066"></path><path d="M527.6 100L411.4 111L598.6 230Z" fill="#2d2d2d" stroke="#ff0066"></path><path d="M681.7 150L527.6 100L598.6 230Z" fill="#313131" stroke="#ff0066"></path><path d="M411.4 111L269.3 165L290.3 284Z" fill="#313131" stroke="#ff0066"></path><path d="M290.3 284L145.1 270L274.3 406Z" fill="#131314" stroke="#ff0066"></path><path d="M736.7 540L874.9 540L828.9 398Z" fill="#2d2d2d" stroke="#ff0066"></path><path d="M269.3 165L145.1 270L290.3 284Z" fill="#353535" stroke="#ff0066"></path><path d="M274.3 406L90.1 540L302.3 540Z" fill="#353535" stroke="#ff0066"></path><path d="M145.1 270L106.1 374L274.3 406Z" fill="#1b1b1b" stroke="#ff0066"></path><path d="M106.1 374L90.1 540L274.3 406Z" fill="#0f0f10" stroke="#ff0066"></path><path d="M828.9 398L854.9 227L710.7 352Z" fill="#2d2d2d" stroke="#ff0066"></path><path d="M960 427L854.9 227L828.9 398Z" fill="#0f0f10" stroke="#ff0066"></path><path d="M874.9 540L960 427L828.9 398Z" fill="#1b1b1b" stroke="#ff0066"></path><path d="M527.6 100L401.4 0L411.4 111Z" fill="#292929" stroke="#ff0066"></path><path d="M411.4 111L241.3 0L269.3 165Z" fill="#292929" stroke="#ff0066"></path><path d="M681.7 150L569.6 0L527.6 100Z" fill="#1b1b1b" stroke="#ff0066"></path><path d="M737.7 0L569.6 0L681.7 150Z" fill="#353535" stroke="#ff0066"></path><path d="M874.9 540L960 540L960 427Z" fill="#262626" stroke="#ff0066"></path><path d="M569.6 0L401.4 0L527.6 100Z" fill="#1e1e1f" stroke="#ff0066"></path><path d="M269.3 165L101.1 136L145.1 270Z" fill="#171718" stroke="#ff0066"></path><path d="M960 178L861.9 144L854.9 227Z" fill="#222222" stroke="#ff0066"></path><path d="M854.9 227L861.9 144L681.7 150Z" fill="#313131" stroke="#ff0066"></path><path d="M0 235L0 426L106.1 374Z" fill="#353535" stroke="#ff0066"></path><path d="M106.1 374L0 426L90.1 540Z" fill="#131314" stroke="#ff0066"></path><path d="M0 426L0 540L90.1 540Z" fill="#131314" stroke="#ff0066"></path><path d="M145.1 270L0 235L106.1 374Z" fill="#353535" stroke="#ff0066"></path><path d="M241.3 0L101.1 136L269.3 165Z" fill="#222222" stroke="#ff0066"></path><path d="M861.9 144L737.7 0L681.7 150Z" fill="#0f0f10" stroke="#ff0066"></path><path d="M960 427L960 217L854.9 227Z" fill="#292929" stroke="#ff0066"></path><path d="M861.9 144L856.9 0L737.7 0Z" fill="#131314" stroke="#ff0066"></path><path d="M401.4 0L241.3 0L411.4 111Z" fill="#313131" stroke="#ff0066"></path><path d="M960 217L960 178L854.9 227Z" fill="#0f0f10" stroke="#ff0066"></path><path d="M101.1 136L0 235L145.1 270Z" fill="#313131" stroke="#ff0066"></path><path d="M960 0L856.9 0L861.9 144Z" fill="#0f0f10" stroke="#ff0066"></path><path d="M241.3 0L136.1 0L101.1 136Z" fill="#171718" stroke="#ff0066"></path><path d="M101.1 136L0 129L0 235Z" fill="#292929" stroke="#ff0066"></path><path d="M0 0L0 129L101.1 136Z" fill="#171718" stroke="#ff0066"></path><path d="M960 178L960 0L861.9 144Z" fill="#313131" stroke="#ff0066"></path><path d="M136.1 0L0 0L101.1 136Z" fill="#313131" stroke="ff0066"></path></g></svg>