<svg id="visual" viewBox="0 0 960 540" width="960" height="540" xmlns="http://www.w3.org/2000/svg" xmlns:xlink="http://www.w3.org/1999/xlink" version="1.1"><g stroke-width="1" stroke-linejoin="bevel"><path d="M398 315L331 205L157 328Z" fill="#292929" stroke="#ff0066"></path><path d="M331 205L126 144L157 328Z" fill="#1e1e1f" stroke="#ff0066"></path><path d="M0 397L168 540L157 328Z" fill="#262626" stroke="#ff0066"></path><path d="M157 328L168 540L398 315Z" fill="#262626" stroke="#ff0066"></path><path d="M168 540L420 540L398 315Z" fill="#1b1b1b" stroke="#ff0066"></path><path d="M420 540L557 338L398 315Z" fill="#292929" stroke="#ff0066"></path><path d="M398 315L568 111L331 205Z" fill="#131314" stroke="#ff0066"></path><path d="M0 158L0 397L157 328Z" fill="#262626" stroke="#ff0066"></path><path d="M126 144L0 158L157 328Z" fill="#171718" stroke="#ff0066"></path><path d="M568 111L337 0L331 205Z" fill="#353535" stroke="#ff0066"></path><path d="M331 205L172 0L126 144Z" fill="#0f0f10" stroke="#ff0066"></path><path d="M126 144L0 0L0 158Z" fill="#313131" stroke="#ff0066"></path><path d="M337 0L172 0L331 205Z" fill="#0f0f10" stroke="#ff0066"></path><path d="M557 338L568 111L398 315Z" fill="#1b1b1b" stroke="#ff0066"></path><path d="M0 397L0 540L168 540Z" fill="#2d2d2d" stroke="#ff0066"></path><path d="M420 540L560 540L557 338Z" fill="#1e1e1f" stroke="#ff0066"></path><path d="M557 338L794 180L568 111Z" fill="#2d2d2d" stroke="#ff0066"></path><path d="M568 111L521 0L337 0Z" fill="#222222" stroke="#ff0066"></path><path d="M172 0L0 0L126 144Z" fill="#292929" stroke="#ff0066"></path><path d="M824 311L794 180L557 338Z" fill="#0f0f10" stroke="#ff0066"></path><path d="M568 111L742 0L521 0Z" fill="#1e1e1f" stroke="#ff0066"></path><path d="M795 540L824 311L557 338Z" fill="#353535" stroke="#ff0066"></path><path d="M794 180L742 0L568 111Z" fill="#313131" stroke="#ff0066"></path><path d="M560 540L795 540L557 338Z" fill="#222222" stroke="#ff0066"></path><path d="M795 540L960 333L824 311Z" fill="#313131" stroke="#ff0066"></path><path d="M824 311L960 211L794 180Z" fill="#1b1b1b" stroke="#ff0066"></path><path d="M794 180L960 0L742 0Z" fill="#353535" stroke="#ff0066"></path><path d="M960 333L960 211L824 311Z" fill="#262626" stroke="#ff0066"></path><path d="M795 540L960 540L960 333Z" fill="#262626" stroke="#ff0066"></path><path d="M960 211L960 0L794 180Z" fill="#171718" stroke="#ff0066"></path></g></svg>