<svg id="visual" viewBox="0 0 960 540" width="960" height="540"
    xmlns="http://www.w3.org/2000/svg"
    xmlns:xlink="http://www.w3.org/1999/xlink" version="1.1">
    <g stroke-width="1" stroke-linejoin="bevel">
        <path d="M505 226L563 214L547 168Z" fill="#131314" stroke="#ff0066"></path>
        <path d="M563 214L581 190L547 168Z" fill="#131314" stroke="#ff0066"></path>
        <path d="M505 226L459 335L563 214Z" fill="#292929" stroke="#ff0066"></path>
        <path d="M625 0L511 38L547 168Z" fill="#222222" stroke="#ff0066"></path>
        <path d="M547 168L395 47L505 226Z" fill="#1e1e1f" stroke="#ff0066"></path>
        <path d="M505 226L397 297L459 335Z" fill="#292929" stroke="#ff0066"></path>
        <path d="M335 235L397 297L505 226Z" fill="#292929" stroke="#ff0066"></path>
        <path d="M732 263L693 142L581 190Z" fill="#222222" stroke="#ff0066"></path>
        <path d="M581 190L693 142L547 168Z" fill="#292929" stroke="#ff0066"></path>
        <path d="M732 263L581 190L563 214Z" fill="#262626" stroke="#ff0066"></path>
        <path d="M395 47L335 235L505 226Z" fill="#0f0f10" stroke="#ff0066"></path>
        <path d="M625 0L512 0L511 38Z" fill="#1e1e1f" stroke="#ff0066"></path>
        <path d="M511 38L395 47L547 168Z" fill="#0f0f10" stroke="#ff0066"></path>
        <path d="M411 0L395 47L511 38Z" fill="#222222" stroke="#ff0066"></path>
        <path d="M659 410L732 263L563 214Z" fill="#262626" stroke="#ff0066"></path>
        <path d="M712 379L736 268L732 263Z" fill="#0f0f10" stroke="#ff0066"></path>
        <path d="M842 207L816 87L693 142Z" fill="#0f0f10" stroke="#ff0066"></path>
        <path d="M693 142L625 0L547 168Z" fill="#1e1e1f" stroke="#ff0066"></path>
        <path d="M397 297L414 399L459 335Z" fill="#262626" stroke="#ff0066"></path>
        <path d="M459 335L659 410L563 214Z" fill="#1b1b1b" stroke="#ff0066"></path>
        <path d="M337 346L414 399L397 297Z" fill="#0f0f10" stroke="#ff0066"></path>
        <path d="M512 0L411 0L511 38Z" fill="#131314" stroke="#ff0066"></path>
        <path d="M816 87L694 28L693 142Z" fill="#1e1e1f" stroke="#ff0066"></path>
        <path d="M693 142L694 28L625 0Z" fill="#131314" stroke="#ff0066"></path>
        <path d="M310 304L337 346L397 297Z" fill="#292929" stroke="#ff0066"></path>
        <path d="M268 311L310 304L251 300Z" fill="#2d2d2d" stroke="#ff0066"></path>
        <path d="M335 235L310 304L397 297Z" fill="#353535" stroke="#ff0066"></path>
        <path d="M602 446L659 410L459 335Z" fill="#2d2d2d" stroke="#ff0066"></path>
        <path d="M659 410L712 379L732 263Z" fill="#2d2d2d" stroke="#ff0066"></path>
        <path d="M414 399L602 446L459 335Z" fill="#262626" stroke="#ff0066"></path>
        <path d="M659 410L702 431L712 379Z" fill="#222222" stroke="#ff0066"></path>
        <path d="M411 0L368 0L395 47Z" fill="#292929" stroke="#ff0066"></path>
        <path d="M395 47L243 144L335 235Z" fill="#131314" stroke="#ff0066"></path>
        <path d="M368 0L341 0L395 47Z" fill="#292929" stroke="#ff0066"></path>
        <path d="M251 300L310 304L335 235Z" fill="#222222" stroke="#ff0066"></path>
        <path d="M310 304L268 311L337 346Z" fill="#1b1b1b" stroke="#ff0066"></path>
        <path d="M337 346L369 484L414 399Z" fill="#171718" stroke="#ff0066"></path>
        <path d="M639 488L702 431L659 410Z" fill="#171718" stroke="#ff0066"></path>
        <path d="M842 207L732 263L736 268Z" fill="#292929" stroke="#ff0066"></path>
        <path d="M241 69L243 144L395 47Z" fill="#131314" stroke="#ff0066"></path>
        <path d="M219 289L251 300L335 235Z" fill="#353535" stroke="#ff0066"></path>
        <path d="M842 207L693 142L732 263Z" fill="#1b1b1b" stroke="#ff0066"></path>
        <path d="M842 207L736 268L844 349Z" fill="#292929" stroke="#ff0066"></path>
        <path d="M590 540L639 488L602 446Z" fill="#292929" stroke="#ff0066"></path>
        <path d="M602 446L639 488L659 410Z" fill="#262626" stroke="#ff0066"></path>
        <path d="M814 374L736 268L712 379Z" fill="#1e1e1f" stroke="#ff0066"></path>
        <path d="M341 0L241 69L395 47Z" fill="#1e1e1f" stroke="#ff0066"></path>
        <path d="M816 87L784 0L694 28Z" fill="#2d2d2d" stroke="#ff0066"></path>
        <path d="M694 28L784 0L625 0Z" fill="#0f0f10" stroke="#ff0066"></path>
        <path d="M243 144L219 289L335 235Z" fill="#2d2d2d" stroke="#ff0066"></path>
        <path d="M251 300L197 470L268 311Z" fill="#1b1b1b" stroke="#ff0066"></path>
        <path d="M197 470L369 484L337 346Z" fill="#262626" stroke="#ff0066"></path>
        <path d="M157 97L219 289L243 144Z" fill="#131314" stroke="#ff0066"></path>
        <path d="M197 470L337 346L268 311Z" fill="#1e1e1f" stroke="#ff0066"></path>
        <path d="M414 399L488 533L602 446Z" fill="#353535" stroke="#ff0066"></path>
        <path d="M820 375L814 374L827 403Z" fill="#1e1e1f" stroke="#ff0066"></path>
        <path d="M827 403L814 374L712 379Z" fill="#353535" stroke="#ff0066"></path>
        <path d="M369 484L488 533L414 399Z" fill="#0f0f10" stroke="#ff0066"></path>
        <path d="M827 403L712 379L702 431Z" fill="#353535" stroke="#ff0066"></path>
        <path d="M814 374L844 349L736 268Z" fill="#292929" stroke="#ff0066"></path>
        <path d="M960 63L806 0L816 87Z" fill="#222222" stroke="#ff0066"></path>
        <path d="M816 87L806 0L784 0Z" fill="#353535" stroke="#ff0066"></path>
        <path d="M488 533L495 540L602 446Z" fill="#131314" stroke="#ff0066"></path>
        <path d="M413 540L495 540L488 533Z" fill="#2d2d2d" stroke="#ff0066"></path>
        <path d="M495 540L590 540L602 446Z" fill="#1e1e1f" stroke="#ff0066"></path>
        <path d="M639 488L735 540L702 431Z" fill="#222222" stroke="#ff0066"></path>
        <path d="M820 375L844 349L814 374Z" fill="#0f0f10" stroke="#ff0066"></path>
        <path d="M590 540L622 540L639 488Z" fill="#171718" stroke="#ff0066"></path>
        <path d="M341 0L236 0L241 69Z" fill="#313131" stroke="#ff0066"></path>
        <path d="M241 69L157 97L243 144Z" fill="#0f0f10" stroke="#ff0066"></path>
        <path d="M369 484L413 540L488 533Z" fill="#1b1b1b" stroke="#ff0066"></path>
        <path d="M735 540L827 403L702 431Z" fill="#353535" stroke="#ff0066"></path>
        <path d="M820 375L827 403L844 349Z" fill="#1b1b1b" stroke="#ff0066"></path>
        <path d="M236 0L186 38L241 69Z" fill="#262626" stroke="#ff0066"></path>
        <path d="M844 349L910 245L842 207Z" fill="#2d2d2d" stroke="#ff0066"></path>
        <path d="M842 207L932 161L816 87Z" fill="#262626" stroke="#ff0066"></path>
        <path d="M960 251L910 245L960 379Z" fill="#131314" stroke="#ff0066"></path>
        <path d="M186 38L157 97L241 69Z" fill="#353535" stroke="#ff0066"></path>
        <path d="M622 540L735 540L639 488Z" fill="#262626" stroke="#ff0066"></path>
        <path d="M910 245L932 161L842 207Z" fill="#222222" stroke="#ff0066"></path>
        <path d="M219 289L197 470L251 300Z" fill="#171718" stroke="#ff0066"></path>
        <path d="M369 484L236 529L413 540Z" fill="#1e1e1f" stroke="#ff0066"></path>
        <path d="M27 318L197 470L219 289Z" fill="#222222" stroke="#ff0066"></path>
        <path d="M960 251L960 170L910 245Z" fill="#0f0f10" stroke="#ff0066"></path>
        <path d="M910 245L960 170L932 161Z" fill="#313131" stroke="#ff0066"></path>
        <path d="M932 161L960 63L816 87Z" fill="#171718" stroke="#ff0066"></path>
        <path d="M960 379L910 245L844 349Z" fill="#222222" stroke="#ff0066"></path>
        <path d="M960 379L844 349L827 403Z" fill="#262626" stroke="#ff0066"></path>
        <path d="M197 470L236 529L369 484Z" fill="#0f0f10" stroke="#ff0066"></path>
        <path d="M960 170L960 63L932 161Z" fill="#292929" stroke="#ff0066"></path>
        <path d="M186 38L105 32L157 97Z" fill="#171718" stroke="#ff0066"></path>
        <path d="M157 97L46 190L219 289Z" fill="#262626" stroke="#ff0066"></path>
        <path d="M236 0L105 32L186 38Z" fill="#171718" stroke="#ff0066"></path>
        <path d="M197 470L222 540L236 529Z" fill="#292929" stroke="#ff0066"></path>
        <path d="M236 529L222 540L413 540Z" fill="#0f0f10" stroke="#ff0066"></path>
        <path d="M960 419L960 379L827 403Z" fill="#131314" stroke="#ff0066"></path>
        <path d="M960 63L960 0L806 0Z" fill="#1e1e1f" stroke="#ff0066"></path>
        <path d="M942 540L960 419L827 403Z" fill="#1b1b1b" stroke="#ff0066"></path>
        <path d="M105 32L46 190L157 97Z" fill="#1e1e1f" stroke="#ff0066"></path>
        <path d="M197 470L185 540L222 540Z" fill="#1b1b1b" stroke="#ff0066"></path>
        <path d="M88 508L185 540L197 470Z" fill="#0f0f10" stroke="#ff0066"></path>
        <path d="M105 32L0 28L46 190Z" fill="#262626" stroke="#ff0066"></path>
        <path d="M236 0L56 0L105 32Z" fill="#262626" stroke="#ff0066"></path>
        <path d="M23 308L219 289L46 190Z" fill="#262626" stroke="#ff0066"></path>
        <path d="M23 308L27 318L219 289Z" fill="#2d2d2d" stroke="#ff0066"></path>
        <path d="M0 226L23 308L46 190Z" fill="#2d2d2d" stroke="#ff0066"></path>
        <path d="M0 28L0 197L46 190Z" fill="#131314" stroke="#ff0066"></path>
        <path d="M0 197L0 226L46 190Z" fill="#2d2d2d" stroke="#ff0066"></path>
        <path d="M735 540L942 540L827 403Z" fill="#353535" stroke="#ff0066"></path>
        <path d="M0 428L88 508L27 318Z" fill="#353535" stroke="#ff0066"></path>
        <path d="M27 318L88 508L197 470Z" fill="#262626" stroke="#ff0066"></path>
        <path d="M0 226L0 321L23 308Z" fill="#1b1b1b" stroke="#ff0066"></path>
        <path d="M23 308L0 321L27 318Z" fill="#1e1e1f" stroke="#ff0066"></path>
        <path d="M942 540L960 540L960 419Z" fill="#1e1e1f" stroke="#ff0066"></path>
        <path d="M56 0L0 28L105 32Z" fill="#131314" stroke="#ff0066"></path>
        <path d="M56 0L0 0L0 28Z" fill="#1e1e1f" stroke="#ff0066"></path>
        <path d="M0 540L72 540L88 508Z" fill="#131314" stroke="#ff0066"></path>
        <path d="M88 508L72 540L185 540Z" fill="#1b1b1b" stroke="#ff0066"></path>
        <path d="M0 321L0 428L27 318Z" fill="#353535" stroke="#ff0066"></path>
        <path d="M0 428L0 540L88 508Z" fill="#131314" stroke="#ff0066"></path>
    </g>
</svg>