<svg id="visual" viewBox="0 0 960 540" width="960" height="540" xmlns="http://www.w3.org/2000/svg" xmlns:xlink="http://www.w3.org/1999/xlink" version="1.1"><path d="M0 93L14.5 89.3C29 85.7 58 78.3 87.2 77.3C116.3 76.3 145.7 81.7 174.8 94.3C204 107 233 127 262 133.3C291 139.7 320 132.3 349 128.7C378 125 407 125 436.2 130.5C465.3 136 494.7 147 523.8 154.2C553 161.3 582 164.7 611 179C640 193.3 669 218.7 698 216C727 213.3 756 182.7 785.2 180C814.3 177.3 843.7 202.7 872.8 204.5C902 206.3 931 184.7 945.5 173.8L960 163L960 0L945.5 0C931 0 902 0 872.8 0C843.7 0 814.3 0 785.2 0C756 0 727 0 698 0C669 0 640 0 611 0C582 0 553 0 523.8 0C494.7 0 465.3 0 436.2 0C407 0 378 0 349 0C320 0 291 0 262 0C233 0 204 0 174.8 0C145.7 0 116.3 0 87.2 0C58 0 29 0 14.5 0L0 0Z" fill="#0f0f10"></path><path d="M0 271L14.5 278.2C29 285.3 58 299.7 87.2 307.8C116.3 316 145.7 318 174.8 310.8C204 303.7 233 287.3 262 281.8C291 276.3 320 281.7 349 278C378 274.3 407 261.7 436.2 256.3C465.3 251 494.7 253 523.8 257.5C553 262 582 269 611 278.8C640 288.7 669 301.3 698 302.3C727 303.3 756 292.7 785.2 288.2C814.3 283.7 843.7 285.3 872.8 288C902 290.7 931 294.3 945.5 296.2L960 298L960 161L945.5 171.8C931 182.7 902 204.3 872.8 202.5C843.7 200.7 814.3 175.3 785.2 178C756 180.7 727 211.3 698 214C669 216.7 640 191.3 611 177C582 162.7 553 159.3 523.8 152.2C494.7 145 465.3 134 436.2 128.5C407 123 378 123 349 126.7C320 130.3 291 137.7 262 131.3C233 125 204 105 174.8 92.3C145.7 79.7 116.3 74.3 87.2 75.3C58 76.3 29 83.7 14.5 87.3L0 91Z" fill="#92286f"></path><path d="M0 352L14.5 356.5C29 361 58 370 87.2 374.5C116.3 379 145.7 379 174.8 369.2C204 359.3 233 339.7 262 333.3C291 327 320 334 349 331.2C378 328.3 407 315.7 436.2 310.3C465.3 305 494.7 307 523.8 319.7C553 332.3 582 355.7 611 362.8C640 370 669 361 698 355.7C727 350.3 756 348.7 785.2 351.3C814.3 354 843.7 361 872.8 359.2C902 357.3 931 346.7 945.5 341.3L960 336L960 296L945.5 294.2C931 292.3 902 288.7 872.8 286C843.7 283.3 814.3 281.7 785.2 286.2C756 290.7 727 301.3 698 300.3C669 299.3 640 286.7 611 276.8C582 267 553 260 523.8 255.5C494.7 251 465.3 249 436.2 254.3C407 259.7 378 272.3 349 276C320 279.7 291 274.3 262 279.8C233 285.3 204 301.7 174.8 308.8C145.7 316 116.3 314 87.2 305.8C58 297.7 29 283.3 14.5 276.2L0 269Z" fill="#ff0066"></path><path d="M0 444L14.5 440.3C29 436.7 58 429.3 87.2 436.5C116.3 443.7 145.7 465.3 174.8 469.8C204 474.3 233 461.7 262 457.2C291 452.7 320 456.3 349 453.7C378 451 407 442 436.2 437.5C465.3 433 494.7 433 523.8 433.8C553 434.7 582 436.3 611 440C640 443.7 669 449.3 698 459.3C727 469.3 756 483.7 785.2 480.8C814.3 478 843.7 458 872.8 451.7C902 445.3 931 452.7 945.5 456.3L960 460L960 334L945.5 339.3C931 344.7 902 355.3 872.8 357.2C843.7 359 814.3 352 785.2 349.3C756 346.7 727 348.3 698 353.7C669 359 640 368 611 360.8C582 353.7 553 330.3 523.8 317.7C494.7 305 465.3 303 436.2 308.3C407 313.7 378 326.3 349 329.2C320 332 291 325 262 331.3C233 337.7 204 357.3 174.8 367.2C145.7 377 116.3 377 87.2 372.5C58 368 29 359 14.5 354.5L0 350Z" fill="#92286f"></path><path d="M0 541L14.5 541C29 541 58 541 87.2 541C116.3 541 145.7 541 174.8 541C204 541 233 541 262 541C291 541 320 541 349 541C378 541 407 541 436.2 541C465.3 541 494.7 541 523.8 541C553 541 582 541 611 541C640 541 669 541 698 541C727 541 756 541 785.2 541C814.3 541 843.7 541 872.8 541C902 541 931 541 945.5 541L960 541L960 458L945.5 454.3C931 450.7 902 443.3 872.8 449.7C843.7 456 814.3 476 785.2 478.8C756 481.7 727 467.3 698 457.3C669 447.3 640 441.7 611 438C582 434.3 553 432.7 523.8 431.8C494.7 431 465.3 431 436.2 435.5C407 440 378 449 349 451.7C320 454.3 291 450.7 262 455.2C233 459.7 204 472.3 174.8 467.8C145.7 463.3 116.3 441.7 87.2 434.5C58 427.3 29 434.7 14.5 438.3L0 442Z" fill="#0f0f10"></path></svg>