<svg id="visual" viewBox="0 0 960 540" width="960" height="540"
    xmlns="http://www.w3.org/2000/svg"
    xmlns:xlink="http://www.w3.org/1999/xlink" version="1.1">
    <rect x="0" y="0" width="960" height="540" fill="#0f0f10"></rect>
    <path d="M0 374L14.5 351C29 328 58 282 87.2 262.5C116.3 243 145.7 250 174.8 268.7C204 287.3 233 317.7 262 314.3C291 311 320 274 349 264.8C378 255.7 407 274.3 436.2 290C465.3 305.7 494.7 318.3 523.8 314.3C553 310.3 582 289.7 611 290.8C640 292 669 315 698 310.2C727 305.3 756 272.7 785.2 278.8C814.3 285 843.7 330 872.8 330.2C902 330.3 931 285.7 945.5 263.3L960 241L960 541L945.5 541C931 541 902 541 872.8 541C843.7 541 814.3 541 785.2 541C756 541 727 541 698 541C669 541 640 541 611 541C582 541 553 541 523.8 541C494.7 541 465.3 541 436.2 541C407 541 378 541 349 541C320 541 291 541 262 541C233 541 204 541 174.8 541C145.7 541 116.3 541 87.2 541C58 541 29 541 14.5 541L0 541Z" fill="#fa7268"></path>
    <path d="M0 389L14.5 388.3C29 387.7 58 386.3 87.2 388.2C116.3 390 145.7 395 174.8 381C204 367 233 334 262 318.2C291 302.3 320 303.7 349 323.8C378 344 407 383 436.2 383.2C465.3 383.3 494.7 344.7 523.8 322.8C553 301 582 296 611 302.3C640 308.7 669 326.3 698 339.8C727 353.3 756 362.7 785.2 363.2C814.3 363.7 843.7 355.3 872.8 341.8C902 328.3 931 309.7 945.5 300.3L960 291L960 541L945.5 541C931 541 902 541 872.8 541C843.7 541 814.3 541 785.2 541C756 541 727 541 698 541C669 541 640 541 611 541C582 541 553 541 523.8 541C494.7 541 465.3 541 436.2 541C407 541 378 541 349 541C320 541 291 541 262 541C233 541 204 541 174.8 541C145.7 541 116.3 541 87.2 541C58 541 29 541 14.5 541L0 541Z" fill="#f16156"></path>
    <path d="M0 382L14.5 380.8C29 379.7 58 377.3 87.2 389.8C116.3 402.3 145.7 429.7 174.8 442.3C204 455 233 453 262 442.3C291 431.7 320 412.3 349 409C378 405.7 407 418.3 436.2 423C465.3 427.7 494.7 424.3 523.8 420C553 415.7 582 410.3 611 416.5C640 422.7 669 440.3 698 432.8C727 425.3 756 392.7 785.2 384.5C814.3 376.3 843.7 392.7 872.8 404.8C902 417 931 425 945.5 429L960 433L960 541L945.5 541C931 541 902 541 872.8 541C843.7 541 814.3 541 785.2 541C756 541 727 541 698 541C669 541 640 541 611 541C582 541 553 541 523.8 541C494.7 541 465.3 541 436.2 541C407 541 378 541 349 541C320 541 291 541 262 541C233 541 204 541 174.8 541C145.7 541 116.3 541 87.2 541C58 541 29 541 14.5 541L0 541Z" fill="#e75144"></path>
    <path d="M0 470L14.5 460.5C29 451 58 432 87.2 434.2C116.3 436.3 145.7 459.7 174.8 471C204 482.3 233 481.7 262 477.3C291 473 320 465 349 466.7C378 468.3 407 479.7 436.2 476.3C465.3 473 494.7 455 523.8 442.5C553 430 582 423 611 422.2C640 421.3 669 426.7 698 430.7C727 434.7 756 437.3 785.2 442.8C814.3 448.3 843.7 456.7 872.8 452C902 447.3 931 429.7 945.5 420.8L960 412L960 541L945.5 541C931 541 902 541 872.8 541C843.7 541 814.3 541 785.2 541C756 541 727 541 698 541C669 541 640 541 611 541C582 541 553 541 523.8 541C494.7 541 465.3 541 436.2 541C407 541 378 541 349 541C320 541 291 541 262 541C233 541 204 541 174.8 541C145.7 541 116.3 541 87.2 541C58 541 29 541 14.5 541L0 541Z" fill="#dd3f31"></path>
</svg>