<svg id="visual" viewBox="0 0 960 540" width="960" height="540" xmlns="http://www.w3.org/2000/svg" xmlns:xlink="http://www.w3.org/1999/xlink" version="1.1"><rect x="0" y="0" width="960" height="540" fill="#001220"></rect><path d="M0 139L17.8 132.3C35.7 125.7 71.3 112.3 106.8 105.3C142.3 98.3 177.7 97.7 213.2 97.8C248.7 98 284.3 99 320 102.3C355.7 105.7 391.3 111.3 426.8 115.7C462.3 120 497.7 123 533.2 120.2C568.7 117.3 604.3 108.7 640 104.8C675.7 101 711.3 102 746.8 108.8C782.3 115.7 817.7 128.3 853.2 134C888.7 139.7 924.3 138.3 942.2 137.7L960 137L960 0L942.2 0C924.3 0 888.7 0 853.2 0C817.7 0 782.3 0 746.8 0C711.3 0 675.7 0 640 0C604.3 0 568.7 0 533.2 0C497.7 0 462.3 0 426.8 0C391.3 0 355.7 0 320 0C284.3 0 248.7 0 213.2 0C177.7 0 142.3 0 106.8 0C71.3 0 35.7 0 17.8 0L0 0Z" fill="#fa7268"></path><path d="M0 126L17.8 126C35.7 126 71.3 126 106.8 124.2C142.3 122.3 177.7 118.7 213.2 112.8C248.7 107 284.3 99 320 93.3C355.7 87.7 391.3 84.3 426.8 82.8C462.3 81.3 497.7 81.7 533.2 88C568.7 94.3 604.3 106.7 640 111C675.7 115.3 711.3 111.7 746.8 110C782.3 108.3 817.7 108.7 853.2 103C888.7 97.3 924.3 85.7 942.2 79.8L960 74L960 0L942.2 0C924.3 0 888.7 0 853.2 0C817.7 0 782.3 0 746.8 0C711.3 0 675.7 0 640 0C604.3 0 568.7 0 533.2 0C497.7 0 462.3 0 426.8 0C391.3 0 355.7 0 320 0C284.3 0 248.7 0 213.2 0C177.7 0 142.3 0 106.8 0C71.3 0 35.7 0 17.8 0L0 0Z" fill="#fc6165"></path><path d="M0 73L17.8 75C35.7 77 71.3 81 106.8 81.2C142.3 81.3 177.7 77.7 213.2 77.2C248.7 76.7 284.3 79.3 320 80.8C355.7 82.3 391.3 82.7 426.8 83.7C462.3 84.7 497.7 86.3 533.2 87.3C568.7 88.3 604.3 88.7 640 84.2C675.7 79.7 711.3 70.3 746.8 67.8C782.3 65.3 817.7 69.7 853.2 73.8C888.7 78 924.3 82 942.2 84L960 86L960 0L942.2 0C924.3 0 888.7 0 853.2 0C817.7 0 782.3 0 746.8 0C711.3 0 675.7 0 640 0C604.3 0 568.7 0 533.2 0C497.7 0 462.3 0 426.8 0C391.3 0 355.7 0 320 0C284.3 0 248.7 0 213.2 0C177.7 0 142.3 0 106.8 0C71.3 0 35.7 0 17.8 0L0 0Z" fill="#fe4e63"></path><path d="M0 64L17.8 60.7C35.7 57.3 71.3 50.7 106.8 49.8C142.3 49 177.7 54 213.2 52.5C248.7 51 284.3 43 320 38.8C355.7 34.7 391.3 34.3 426.8 39.3C462.3 44.3 497.7 54.7 533.2 58.7C568.7 62.7 604.3 60.3 640 59.2C675.7 58 711.3 58 746.8 56.7C782.3 55.3 817.7 52.7 853.2 48.8C888.7 45 924.3 40 942.2 37.5L960 35L960 0L942.2 0C924.3 0 888.7 0 853.2 0C817.7 0 782.3 0 746.8 0C711.3 0 675.7 0 640 0C604.3 0 568.7 0 533.2 0C497.7 0 462.3 0 426.8 0C391.3 0 355.7 0 320 0C284.3 0 248.7 0 213.2 0C177.7 0 142.3 0 106.8 0C71.3 0 35.7 0 17.8 0L0 0Z" fill="#ff3564"></path><path d="M0 15L17.8 20.2C35.7 25.3 71.3 35.7 106.8 34.5C142.3 33.3 177.7 20.7 213.2 19.8C248.7 19 284.3 30 320 31.5C355.7 33 391.3 25 426.8 25.2C462.3 25.3 497.7 33.7 533.2 36C568.7 38.3 604.3 34.7 640 33.5C675.7 32.3 711.3 33.7 746.8 33.2C782.3 32.7 817.7 30.3 853.2 28.8C888.7 27.3 924.3 26.7 942.2 26.3L960 26L960 0L942.2 0C924.3 0 888.7 0 853.2 0C817.7 0 782.3 0 746.8 0C711.3 0 675.7 0 640 0C604.3 0 568.7 0 533.2 0C497.7 0 462.3 0 426.8 0C391.3 0 355.7 0 320 0C284.3 0 248.7 0 213.2 0C177.7 0 142.3 0 106.8 0C71.3 0 35.7 0 17.8 0L0 0Z" fill="#ff0066"></path></svg>