<svg id="visual" viewBox="0 0 960 540" width="960" height="540" xmlns="http://www.w3.org/2000/svg" xmlns:xlink="http://www.w3.org/1999/xlink" version="1.1"><path d="M0 71L87 71L87 152L175 152L175 114L262 114L262 98L349 98L349 114L436 114L436 93L524 93L524 179L611 179L611 174L698 174L698 125L785 125L785 87L873 87L873 147L960 147L960 141L960 0L960 0L873 0L873 0L785 0L785 0L698 0L698 0L611 0L611 0L524 0L524 0L436 0L436 0L349 0L349 0L262 0L262 0L175 0L175 0L87 0L87 0L0 0Z" fill="#0f0f10"></path><path d="M0 158L87 158L87 228L175 228L175 244L262 244L262 168L349 168L349 195L436 195L436 228L524 228L524 293L611 293L611 282L698 282L698 244L785 244L785 190L873 190L873 228L960 228L960 260L960 139L960 145L873 145L873 85L785 85L785 123L698 123L698 172L611 172L611 177L524 177L524 91L436 91L436 112L349 112L349 96L262 96L262 112L175 112L175 150L87 150L87 69L0 69Z" fill="#642958"></path><path d="M0 249L87 249L87 271L175 271L175 303L262 303L262 282L349 282L349 293L436 293L436 314L524 314L524 347L611 347L611 363L698 363L698 293L785 293L785 255L873 255L873 282L960 282L960 368L960 258L960 226L873 226L873 188L785 188L785 242L698 242L698 280L611 280L611 291L524 291L524 226L436 226L436 193L349 193L349 166L262 166L262 242L175 242L175 226L87 226L87 156L0 156Z" fill="#b0235f"></path><path d="M0 336L87 336L87 325L175 325L175 384L262 384L262 314L349 314L349 347L436 347L436 347L524 347L524 406L611 406L611 444L698 444L698 374L785 374L785 330L873 330L873 357L960 357L960 438L960 366L960 280L873 280L873 253L785 253L785 291L698 291L698 361L611 361L611 345L524 345L524 312L436 312L436 291L349 291L349 280L262 280L262 301L175 301L175 269L87 269L87 247L0 247Z" fill="#642958"></path><path d="M0 541L87 541L87 541L175 541L175 541L262 541L262 541L349 541L349 541L436 541L436 541L524 541L524 541L611 541L611 541L698 541L698 541L785 541L785 541L873 541L873 541L960 541L960 541L960 436L960 355L873 355L873 328L785 328L785 372L698 372L698 442L611 442L611 404L524 404L524 345L436 345L436 345L349 345L349 312L262 312L262 382L175 382L175 323L87 323L87 334L0 334Z" fill="#0f0f10"></path></svg>