<svg id="visual" viewBox="0 0 900 300" width="900" height="300"
    xmlns="http://www.w3.org/2000/svg"
    xmlns:xlink="http://www.w3.org/1999/xlink" version="1.1">
    <rect x="0" y="0" width="900" height="300" fill="#0f0f10"></rect>
    <path d="M0 52L150 19L300 34L450 22L600 49L750 25L900 19L900 0L750 0L600 0L450 0L300 0L150 0L0 0Z" fill="rgba(0,0,0,0)"></path>
    <path d="M0 100L150 37L300 73L450 64L600 73L750 43L900 52L900 17L750 23L600 47L450 20L300 32L150 17L0 50Z" fill="#340035"></path>
    <path d="M0 142L150 103L300 169L450 100L600 106L750 154L900 145L900 50L750 41L600 71L450 62L300 71L150 35L0 98Z" fill="#450045"></path>
    <path d="M0 199L150 172L300 205L450 151L600 148L750 208L900 193L900 143L750 152L600 104L450 98L300 167L150 101L0 140Z" fill="#4b004b"></path>
    <path d="M0 211L150 199L300 229L450 178L600 181L750 226L900 205L900 191L750 206L600 146L450 149L300 203L150 170L0 197Z" fill="#450045"></path>
    <path d="M0 289L150 277L300 268L450 289L600 280L750 286L900 265L900 203L750 224L600 179L450 176L300 227L150 197L0 209Z" fill="#340035"></path>
    <path d="M0 301L150 301L300 301L450 301L600 301L750 301L900 301L900 263L750 284L600 278L450 287L300 266L150 275L0 287Z" fill="#0f0f10"></path>
</svg>